<svg viewBox="0 0 69 49" fill="none" xmlns="http://www.w3.org/2000/svg">
<path d="M0.528643 39.7799V38.8943L1.02064 30.5305C1.08624 29.4153 1.61103 27.5785 2.59501 25.0202C5.80936 15.2459 11.9429 7.76761 20.9955 2.58529C22.8979 1.14211 24.6363 0.420521 26.2107 0.420521C27.457 0.48612 28.605 0.912513 29.6546 1.6997C29.917 2.15889 30.0482 2.61809 30.0482 3.07728C30.0482 3.79887 29.753 4.45486 29.1626 5.04525C28.3098 5.96364 26.8995 6.94762 24.9315 7.99721C18.3716 11.474 14.3044 16.2955 12.7301 22.4618C19.8804 22.921 23.4555 25.8729 23.4555 31.3177V31.9081L22.8651 40.2719C22.4059 45.4543 18.5028 48.1766 11.1557 48.439C4.07099 47.9798 0.528643 45.0935 0.528643 39.7799ZM38.8057 39.7799V38.8943L39.2977 30.5305C39.3633 29.4153 39.7897 27.7753 40.5768 25.6105L42.5448 20.789C45.8248 13.3763 51.4007 7.30842 59.2726 2.58529C61.1749 1.14211 62.9461 0.420521 64.5861 0.420521C65.8325 0.48612 66.9477 0.912513 67.9316 1.6997C68.2596 2.22449 68.4236 2.71649 68.4236 3.17568C68.4236 3.83167 68.1284 4.45486 67.538 5.04525C66.6197 5.96364 65.1765 6.94762 63.2085 7.99721C56.6486 11.474 52.5815 16.2955 51.0071 22.4618C58.1574 22.921 61.7325 25.8401 61.7325 31.2193V31.9081L61.2405 40.2719C60.7813 45.7822 57.3702 48.5374 51.0071 48.5374C50.4167 48.4718 49.8919 48.439 49.4327 48.439C42.348 48.439 38.8057 45.5526 38.8057 39.7799Z" fill="#18161D"/>
</svg>
