<svg width="185" height="12" viewBox="0 0 185 12" fill="none" xmlns="http://www.w3.org/2000/svg">
<path d="M5.40723 0.90332C6.80632 0.90332 7.9069 1.36816 8.70898 2.29785C9.51562 3.22298 9.91895 4.47852 9.91895 6.06445C9.91895 7.65039 9.51562 8.9082 8.70898 9.83789C7.9069 10.7676 6.80632 11.2324 5.40723 11.2324C3.99902 11.2324 2.8916 10.7676 2.08496 9.83789C1.27832 8.9082 0.875 7.65039 0.875 6.06445C0.875 4.47852 1.2806 3.22298 2.0918 2.29785C2.90755 1.36816 4.0127 0.90332 5.40723 0.90332ZM5.40723 2.03809C4.40462 2.03809 3.60938 2.40039 3.02148 3.125C2.43359 3.84961 2.13965 4.82943 2.13965 6.06445C2.13965 7.29948 2.42904 8.28158 3.00781 9.01074C3.59115 9.73535 4.39095 10.0977 5.40723 10.0977C6.41439 10.0977 7.20736 9.73307 7.78613 9.00391C8.36491 8.27474 8.6543 7.29492 8.6543 6.06445C8.6543 4.82487 8.36491 3.84505 7.78613 3.125C7.20736 2.40039 6.41439 2.03809 5.40723 2.03809ZM14.175 11V10.125L19.76 2.35254V2.24316H14.3664V1.13574H21.3527V2.01074L15.7951 9.7832V9.89258H21.4689V11H14.175ZM32.6293 9.89258V11H26.518V1.13574H32.6293V2.24316H27.7484V5.4082H32.3764V6.50195H27.7484V9.89258H32.6293ZM38.8746 11H37.6578V1.13574H38.8541L44.2066 8.8125H44.316V1.13574H45.5328V11H44.3365L38.984 3.35059H38.8746V11ZM52.1131 1.13574V7.52734C52.1131 8.28841 52.3501 8.9082 52.824 9.38672C53.3025 9.86068 53.9611 10.0977 54.7996 10.0977C55.6382 10.0977 56.2944 9.86068 56.7684 9.38672C57.2469 8.9082 57.4861 8.28841 57.4861 7.52734V1.13574H58.7166V7.60938C58.7166 8.68034 58.3634 9.55306 57.657 10.2275C56.9552 10.8975 56.0027 11.2324 54.7996 11.2324C53.5965 11.2324 52.6417 10.8975 51.9354 10.2275C51.2335 9.55306 50.8826 8.68034 50.8826 7.60938V1.13574H52.1131ZM70.2734 11L69.2822 8.17676H65.3584L64.3672 11H63.0752L66.7119 1.13574H67.9287L71.5654 11H70.2734ZM67.2656 2.72852L65.7207 7.13086H68.9199L67.375 2.72852H67.2656ZM86.9955 0.90332C88.3946 0.90332 89.4952 1.36816 90.2973 2.29785C91.1039 3.22298 91.5072 4.47852 91.5072 6.06445C91.5072 7.65039 91.1039 8.9082 90.2973 9.83789C89.4952 10.7676 88.3946 11.2324 86.9955 11.2324C85.5873 11.2324 84.4799 10.7676 83.6732 9.83789C82.8666 8.9082 82.4633 7.65039 82.4633 6.06445C82.4633 4.47852 82.8689 3.22298 83.6801 2.29785C84.4958 1.36816 85.601 0.90332 86.9955 0.90332ZM86.9955 2.03809C85.9929 2.03809 85.1977 2.40039 84.6098 3.125C84.0219 3.84961 83.7279 4.82943 83.7279 6.06445C83.7279 7.29948 84.0173 8.28158 84.5961 9.01074C85.1794 9.73535 85.9792 10.0977 86.9955 10.0977C88.0027 10.0977 88.7956 9.73307 89.3744 9.00391C89.9532 8.27474 90.2426 7.29492 90.2426 6.06445C90.2426 4.82487 89.9532 3.84505 89.3744 3.125C88.7956 2.40039 88.0027 2.03809 86.9955 2.03809ZM102.435 9.89258V11H96.4469V1.13574H97.6773V9.89258H102.435ZM108.127 1.13574V7.52734C108.127 8.28841 108.364 8.9082 108.838 9.38672C109.316 9.86068 109.975 10.0977 110.813 10.0977C111.652 10.0977 112.308 9.86068 112.782 9.38672C113.261 8.9082 113.5 8.28841 113.5 7.52734V1.13574H114.73V7.60938C114.73 8.68034 114.377 9.55306 113.671 10.2275C112.969 10.8975 112.016 11.2324 110.813 11.2324C109.61 11.2324 108.655 10.8975 107.949 10.2275C107.247 9.55306 106.896 8.68034 106.896 7.60938V1.13574H108.127ZM125.556 3.21387L123.286 11H122.124L119.438 1.13574H120.723L122.685 9.1543H122.767L124.975 1.13574H126.219L128.427 9.1543H128.509L130.471 1.13574H131.756L129.069 11H127.907L125.638 3.21387H125.556ZM142.089 11L141.098 8.17676H137.174L136.183 11H134.891L138.528 1.13574H139.744L143.381 11H142.089ZM139.081 2.72852L137.536 7.13086H140.736L139.191 2.72852H139.081ZM150.542 11H149.312V2.24316H146.133V1.13574H153.721V2.24316H150.542V11ZM162.161 0.90332C163.56 0.90332 164.66 1.36816 165.462 2.29785C166.269 3.22298 166.672 4.47852 166.672 6.06445C166.672 7.65039 166.269 8.9082 165.462 9.83789C164.66 10.7676 163.56 11.2324 162.161 11.2324C160.753 11.2324 159.645 10.7676 158.838 9.83789C158.032 8.9082 157.629 7.65039 157.629 6.06445C157.629 4.47852 158.034 3.22298 158.845 2.29785C159.661 1.36816 160.766 0.90332 162.161 0.90332ZM162.161 2.03809C161.158 2.03809 160.363 2.40039 159.775 3.125C159.187 3.84961 158.893 4.82943 158.893 6.06445C158.893 7.29948 159.183 8.28158 159.761 9.01074C160.345 9.73535 161.144 10.0977 162.161 10.0977C163.168 10.0977 163.961 9.73307 164.54 9.00391C165.118 8.27474 165.408 7.29492 165.408 6.06445C165.408 4.82487 165.118 3.84505 164.54 3.125C163.961 2.40039 163.168 2.03809 162.161 2.03809ZM175.461 11H171.612V1.13574H175.386C176.288 1.13574 176.999 1.35677 177.518 1.79883C178.042 2.24089 178.304 2.84017 178.304 3.59668C178.304 4.1071 178.138 4.56738 177.805 4.97754C177.477 5.3877 177.076 5.63607 176.602 5.72266V5.83203C177.277 5.91862 177.812 6.17839 178.209 6.61133C178.605 7.03971 178.804 7.57975 178.804 8.23145C178.804 9.10189 178.507 9.78092 177.915 10.2686C177.327 10.7562 176.509 11 175.461 11ZM172.843 2.22266V5.3877H174.811C176.311 5.3877 177.06 4.86133 177.06 3.80859C177.06 3.30729 176.889 2.91764 176.548 2.63965C176.21 2.36165 175.736 2.22266 175.126 2.22266H172.843ZM172.843 9.91309H175.276C176.019 9.91309 176.582 9.76497 176.965 9.46875C177.347 9.17253 177.539 8.73958 177.539 8.16992C177.539 7.02148 176.746 6.44727 175.16 6.44727H172.843V9.91309ZM184.844 11H183.613V1.13574H184.844V11Z" fill="#000C1E"/>
</svg>
