<svg viewBox="0 0 69 49" fill="none" xmlns="http://www.w3.org/2000/svg">
<path d="M68.4714 39.7799V38.8943L67.9794 30.5305C67.9138 29.4153 67.389 27.5785 66.405 25.0202C63.1906 15.2459 57.0571 7.76761 48.0045 2.58529C46.1021 1.14211 44.3637 0.420521 42.7893 0.420521C41.543 0.48612 40.395 0.912513 39.3454 1.6997C39.083 2.15889 38.9518 2.61809 38.9518 3.07728C38.9518 3.79887 39.247 4.45486 39.8374 5.04525C40.6902 5.96364 42.1005 6.94762 44.0685 7.99721C50.6284 11.474 54.6956 16.2955 56.2699 22.4618C49.1196 22.921 45.5445 25.8729 45.5445 31.3177V31.9081L46.1349 40.2719C46.5941 45.4543 50.4972 48.1766 57.8443 48.439C64.929 47.9798 68.4714 45.0935 68.4714 39.7799ZM30.1943 39.7799V38.8943L29.7023 30.5305C29.6367 29.4153 29.2103 27.7753 28.4232 25.6105L26.4552 20.789C23.1752 13.3763 17.5993 7.30842 9.72743 2.58529C7.82506 1.14211 6.05388 0.420521 4.41391 0.420521C3.16753 0.48612 2.05234 0.912513 1.06836 1.6997C0.740364 2.22449 0.576366 2.71649 0.576366 3.17568C0.576366 3.83167 0.871562 4.45486 1.46195 5.04525C2.38034 5.96364 3.82352 6.94762 5.79149 7.99721C12.3514 11.474 16.4185 16.2955 17.9929 22.4618C10.8426 22.921 7.26747 25.8401 7.26747 31.2193V31.9081L7.75946 40.2719C8.21865 45.7822 11.6298 48.5374 17.9929 48.5374C18.5833 48.4718 19.1081 48.439 19.5673 48.439C26.652 48.439 30.1943 45.5526 30.1943 39.7799Z" fill="#18161D"/>
</svg>
